<svg width="24" height="27" viewBox="0 0 24 27" fill="none" xmlns="http://www.w3.org/2000/svg">
<path d="M15.857 9.03705C16.7715 9.03705 17.5129 8.2957 17.5129 7.3812C17.5129 6.4667 16.7715 5.72536 15.857 5.72536C14.9425 5.72536 14.2012 6.4667 14.2012 7.3812C14.2012 8.2957 14.9425 9.03705 15.857 9.03705Z" fill="white"/>
<path d="M22.6489 5.78149L21.7508 5.64116C21.6333 5.23268 21.4734 4.83761 21.2737 4.46242L21.8069 3.70466C21.9007 3.56895 21.9436 3.40454 21.9282 3.2403C21.9128 3.07606 21.8401 2.92249 21.7227 2.80658L20.4317 1.51558C20.3158 1.39821 20.1622 1.32543 19.998 1.31004C19.8337 1.29464 19.6693 1.3376 19.5336 1.43138L18.8039 1.96462C18.4288 1.7647 18.0337 1.60479 17.6252 1.48751L17.4849 0.589427C17.458 0.423404 17.3723 0.272566 17.2435 0.164389C17.1148 0.0562114 16.9514 -0.00210635 16.7832 5.81576e-05H14.959C14.7908 -0.00210635 14.6275 0.0562114 14.4987 0.164389C14.3699 0.272566 14.2843 0.423404 14.2574 0.589427L14.117 1.48751C13.7085 1.60479 13.3134 1.7647 12.9383 1.96462L12.1805 1.45945C12.0448 1.36567 11.8804 1.3227 11.7162 1.3381C11.5519 1.3535 11.3984 1.42627 11.2824 1.54364L10.8615 1.93656C6.31491 2.13301 2.5261 5.83762 2.44191 10.1877L0.0844321 16.2779C0.0141348 16.4603 -0.0128311 16.6566 0.00565878 16.8513C0.0241486 17.046 0.0875891 17.2337 0.190982 17.3997C0.294375 17.5656 0.434896 17.7053 0.601474 17.8078C0.768053 17.9102 0.956137 17.9725 1.15091 17.9898L2.55417 18.1302L2.72256 20.2912C2.77283 20.9143 3.06565 21.4927 3.53801 21.9021C4.01038 22.3114 4.62455 22.5191 5.24843 22.4803L6.67975 22.3961V25.6797C6.67961 25.861 6.74967 26.0354 6.87524 26.1662C7.00081 26.297 7.17214 26.3741 7.35332 26.3813H18.5794C18.7655 26.3813 18.9439 26.3074 19.0755 26.1758C19.2071 26.0443 19.281 25.8658 19.281 25.6797V20.1789C19.2375 19.477 19.2563 18.7726 19.3372 18.074C19.3652 17.8495 19.3652 17.625 19.3933 17.4285C19.4494 16.755 19.5336 15.913 19.6459 15.043C19.7581 14.173 19.7581 13.9765 19.8143 13.4433C19.9254 13.4626 20.0395 13.4548 20.147 13.4206C20.2545 13.3864 20.3522 13.3268 20.4317 13.2468L21.7227 11.9558C21.8401 11.8399 21.9128 11.6864 21.9282 11.5221C21.9436 11.3579 21.9007 11.1935 21.8069 11.0577L21.2737 10.3C21.4734 9.9248 21.6333 9.52973 21.7508 9.12125L22.6489 8.98092C22.8149 8.95403 22.9657 8.86839 23.0739 8.7396C23.1821 8.61082 23.2404 8.44747 23.2382 8.27929V6.48312C23.2404 6.31495 23.1821 6.15159 23.0739 6.02281C22.9657 5.89402 22.8149 5.80839 22.6489 5.78149ZM18.2426 14.8746C18.1304 15.7727 18.0462 16.6147 17.99 17.3444L17.9339 17.9618C17.8487 18.7258 17.8299 19.4958 17.8778 20.2631V24.9781H8.05495V21.6383C8.05526 21.5413 8.03543 21.4452 7.99671 21.3562C7.958 21.2672 7.90123 21.1872 7.83001 21.1212C7.7588 21.0553 7.67467 21.0049 7.58296 20.9731C7.49124 20.9413 7.39394 20.9289 7.29719 20.9367L5.1081 21.077C4.85202 21.0926 4.6 21.0073 4.40595 20.8395C4.2119 20.6717 4.09121 20.4346 4.06969 20.1789L3.84517 17.4285C3.83227 17.2616 3.76013 17.1048 3.64175 16.9865C3.52338 16.8681 3.36658 16.7959 3.19967 16.783L1.4035 16.6147L3.76097 10.5806C3.79518 10.5007 3.81421 10.415 3.8171 10.3281C3.8171 7.01636 6.42717 4.12564 9.76693 3.48014C9.79055 3.56112 9.82857 3.63718 9.87919 3.70466L10.4124 4.46242C10.2127 4.83761 10.0528 5.23268 9.93532 5.64116L9.03723 5.78149C8.87121 5.80839 8.72037 5.89402 8.61219 6.02281C8.50401 6.15159 8.4457 6.31495 8.44786 6.48312V8.30736C8.45337 8.47487 8.51865 8.63488 8.6319 8.75843C8.74516 8.88197 8.89889 8.9609 9.0653 8.98092L9.96338 9.12125C10.0808 9.52973 10.2408 9.9248 10.4405 10.3L9.93532 11.0577C9.84154 11.1935 9.79857 11.3579 9.81397 11.5221C9.82937 11.6864 9.90214 11.8399 10.0195 11.9558L11.3105 13.2468C11.4264 13.3642 11.58 13.437 11.7442 13.4524C11.9085 13.4678 12.0729 13.4248 12.2086 13.331L12.9664 12.7978C13.3415 12.9975 13.7366 13.1574 14.1451 13.2749L14.2854 14.173C14.3123 14.339 14.398 14.4898 14.5267 14.598C14.6555 14.7062 14.8189 14.7645 14.9871 14.7624H16.8113C16.9795 14.7645 17.1428 14.7062 17.2716 14.598C17.4004 14.4898 17.486 14.339 17.5129 14.173L17.6532 13.2749L18.4952 12.9381C18.411 13.6117 18.3268 14.2291 18.2426 14.8746ZM15.8571 10.4403C15.252 10.4403 14.6606 10.2609 14.1575 9.92476C13.6545 9.58862 13.2624 9.11085 13.0308 8.55187C12.7993 7.9929 12.7387 7.37781 12.8567 6.7844C12.9748 6.19099 13.2661 5.64591 13.694 5.21809C14.1218 4.79027 14.6669 4.49891 15.2603 4.38088C15.8537 4.26284 16.4688 4.32342 17.0277 4.55496C17.5867 4.7865 18.0645 5.17859 18.4006 5.68166C18.7368 6.18472 18.9162 6.77617 18.9162 7.38121C18.9162 8.19253 18.5939 8.97063 18.0202 9.54432C17.4465 10.118 16.6684 10.4403 15.8571 10.4403Z" fill="white"/>
</svg>
