<svg width="25" height="20" viewBox="0 0 25 20" fill="none" xmlns="http://www.w3.org/2000/svg">
<g id="Group">
<g id="Group_2">
<g id="Group_3">
<path id="Vector" d="M8.13579 15.3019C8.2633 15.4294 8.46733 15.4549 8.62035 15.3274L9.23242 14.7408C9.35994 14.6133 9.38544 14.4093 9.25793 14.2563L7.06466 11.91L9.25793 9.58918C9.38544 9.46167 9.38544 9.23214 9.23242 9.10462L8.62035 8.51805C8.49283 8.39054 8.2633 8.39054 8.13579 8.54355L5.17742 11.7059C5.04991 11.8335 5.04991 12.0375 5.17742 12.165L8.13579 15.3019Z" fill="white"/>
<path id="Vector_2" d="M14.9958 14.7408L15.6079 15.3274C15.7354 15.4549 15.9649 15.4549 16.0924 15.3019L19.0508 12.165C19.1783 12.0375 19.1783 11.8335 19.0508 11.706L16.0924 8.54357C15.9649 8.41606 15.7609 8.39055 15.6079 8.51807L14.9958 9.10464C14.8683 9.23216 14.8428 9.43618 14.9703 9.5892L17.1636 11.91L14.9703 14.2563C14.8428 14.4093 14.8683 14.6133 14.9958 14.7408Z" fill="white"/>
<path id="Vector_3" d="M10.7114 15.71L11.5275 15.914C11.706 15.965 11.8846 15.863 11.9356 15.6589L13.7718 8.56907C13.8228 8.39055 13.7208 8.21203 13.5168 8.16102L12.7007 7.957C12.5221 7.90599 12.3436 8.008 12.2926 8.21203L10.4819 15.3019C10.4309 15.4804 10.5329 15.6589 10.7114 15.71Z" fill="white"/>
<path id="Vector_4" d="M21.7797 0H2.4483C1.09663 0 0 1.09663 0 2.4483V17.2401C0 18.5918 1.09663 19.6884 2.4483 19.6884H21.7797C23.1313 19.6884 24.228 18.5918 24.228 17.2401V2.4483C24.228 1.09663 23.1313 0 21.7797 0ZM16.424 2.21877H20.224C20.581 2.21877 20.8616 2.49931 20.8616 2.85635C20.8616 3.2134 20.581 3.46843 20.224 3.46843H16.424C16.067 3.46843 15.7864 3.18789 15.7864 2.83085C15.7864 2.4738 16.067 2.21877 16.424 2.21877ZM8.74758 1.96374C9.23214 1.96374 9.61468 2.34629 9.61468 2.83085C9.61468 3.31541 9.23214 3.69795 8.74758 3.69795C8.26302 3.69795 7.88047 3.31541 7.88047 2.83085C7.88047 2.37179 8.26302 1.96374 8.74758 1.96374ZM6.17176 1.96374C6.65632 1.96374 7.03887 2.34629 7.03887 2.83085C7.03887 3.31541 6.65632 3.69795 6.17176 3.69795C5.6872 3.69795 5.30465 3.31541 5.30465 2.83085C5.30465 2.37179 5.7127 1.96374 6.17176 1.96374ZM3.62145 1.96374C4.10601 1.96374 4.48855 2.34629 4.48855 2.83085C4.48855 3.31541 4.10601 3.69795 3.62145 3.69795C3.13689 3.69795 2.75434 3.31541 2.75434 2.83085C2.75434 2.37179 3.13689 1.96374 3.62145 1.96374ZM22.6978 17.2401C22.6978 17.7502 22.2897 18.1582 21.7797 18.1582H2.4483C1.93824 18.1582 1.53019 17.7502 1.53019 17.2401V5.7127H22.7233V17.2401H22.6978Z" fill="white"/>
</g>
</g>
</g>
</svg>
