<svg width="21" height="16" viewBox="0 0 21 16" fill="none" xmlns="http://www.w3.org/2000/svg">
<g id="Group">
<path id="Vector" d="M20.2131 0.0167384C20.1201 0.0295705 20.0099 0.0552346 19.8559 0.101522L0.868986 6.42613C0.860965 6.42888 0.853404 6.4314 0.845613 6.43461C0.561474 6.54666 0.37793 6.81636 0.37793 7.12181C0.37793 7.4284 0.56262 7.69948 0.847904 7.81199C0.857528 7.81589 0.866923 7.8191 0.876547 7.8223L5.84302 9.40752L7.68763 15.5353C7.69359 15.5555 7.70115 15.5752 7.70985 15.5944C7.82374 15.8426 8.06915 16 8.33931 16C8.34688 16 8.35421 16 8.362 15.9998C8.54486 15.9938 8.7119 15.9164 8.83587 15.7867C8.84641 15.7803 8.8581 15.7775 8.86818 15.7702L12.6211 13.0044L16.0832 14.7961C16.188 14.8726 16.3167 14.9129 16.454 14.9129C16.517 14.9129 16.5821 14.9045 16.6474 14.8873C16.9485 14.8071 17.3025 14.5243 17.4116 14.0825L20.9427 1.11526C20.948 1.09555 20.9521 1.07538 20.9548 1.05522L20.9652 0.978686C20.9791 0.876946 20.9906 0.788496 20.9933 0.734647C21.0025 0.641156 21.0302 0.356559 20.8132 0.1556C20.5988 -0.0435265 20.3181 -0.00182228 20.2131 0.0167384ZM6.75249 9.24896L19.6877 1.22066L19.7887 1.1895C19.7019 1.34486 19.593 1.48761 19.464 1.61433L10.021 10.8972C10.0201 10.8981 10.0052 10.9125 10.0043 10.9137C9.87595 11.0422 9.78223 11.2026 9.73136 11.3798L8.37277 14.6311L6.75249 9.24896Z" fill="white"/>
</g>
</svg>
