<svg width="43" height="36" viewBox="0 0 43 36" fill="none" xmlns="http://www.w3.org/2000/svg">
<path d="M14.439 27.2211C14.6653 27.4474 15.0274 27.4926 15.299 27.2663L16.3853 26.2253C16.6116 25.999 16.6569 25.6369 16.4305 25.3653L12.5379 21.2011L16.4305 17.0821C16.6569 16.8558 16.6569 16.4484 16.3853 16.2221L15.299 15.1811C15.0726 14.9548 14.6653 14.9548 14.439 15.2263L9.18843 20.839C8.96211 21.0653 8.96211 21.4274 9.18843 21.6537L14.439 27.2211Z" fill="white"/>
<path d="M26.6147 26.2253L27.7011 27.2663C27.9274 27.4926 28.3347 27.4926 28.5611 27.2211L33.8116 21.6537C34.0379 21.4274 34.0379 21.0653 33.8116 20.839L28.5611 15.2263C28.3347 15 27.9726 14.9547 27.7011 15.1811L26.6147 16.2221C26.3884 16.4484 26.3432 16.8105 26.5695 17.0821L30.4621 21.2011L26.5695 25.3653C26.3432 25.6369 26.3884 25.999 26.6147 26.2253Z" fill="white"/>
<path d="M19.0105 27.9453L20.459 28.3074C20.7758 28.3979 21.0926 28.2169 21.1832 27.8548L24.4421 15.2716C24.5326 14.9548 24.3516 14.6379 23.9895 14.5474L22.5411 14.1853C22.2242 14.0948 21.9074 14.2758 21.8169 14.6379L18.6032 27.2211C18.5126 27.5379 18.6937 27.8548 19.0105 27.9453Z" fill="white"/>
<path d="M38.6547 0.0631714H4.34526C1.94632 0.0631714 0 2.00949 0 4.40843V30.6611C0 33.06 1.94632 35.0063 4.34526 35.0063H38.6547C41.0537 35.0063 43 33.06 43 30.6611V4.40843C43 2.00949 41.0537 0.0631714 38.6547 0.0631714ZM29.1495 4.00107H35.8937C36.5274 4.00107 37.0253 4.49896 37.0253 5.13265C37.0253 5.76633 36.5274 6.21896 35.8937 6.21896H29.1495C28.5158 6.21896 28.0179 5.72107 28.0179 5.08738C28.0179 4.4537 28.5158 4.00107 29.1495 4.00107ZM15.5253 3.54843C16.3853 3.54843 17.0642 4.22738 17.0642 5.08738C17.0642 5.94738 16.3853 6.62633 15.5253 6.62633C14.6653 6.62633 13.9863 5.94738 13.9863 5.08738C13.9863 4.27265 14.6653 3.54843 15.5253 3.54843ZM10.9537 3.54843C11.8137 3.54843 12.4926 4.22738 12.4926 5.08738C12.4926 5.94738 11.8137 6.62633 10.9537 6.62633C10.0937 6.62633 9.41474 5.94738 9.41474 5.08738C9.41474 4.27265 10.1389 3.54843 10.9537 3.54843ZM6.42737 3.54843C7.28737 3.54843 7.96632 4.22738 7.96632 5.08738C7.96632 5.94738 7.28737 6.62633 6.42737 6.62633C5.56737 6.62633 4.88842 5.94738 4.88842 5.08738C4.88842 4.27265 5.56737 3.54843 6.42737 3.54843ZM40.2842 30.6611C40.2842 31.5663 39.56 32.2905 38.6547 32.2905H4.34526C3.44 32.2905 2.71579 31.5663 2.71579 30.6611V10.2021H40.3295V30.6611H40.2842Z" fill="white"/>
</svg>
