<svg width="11" height="18" viewBox="0 0 11 18" fill="none" xmlns="http://www.w3.org/2000/svg">
<g id="Group">
<path id="Vector" d="M5.5 0C2.46766 0 0 2.43465 0 5.42666C0 6.54866 0.344668 7.62666 0.997345 8.54333C1.86999 9.77165 2.33199 11.1943 2.33199 12.65V12.6537H8.66801V12.65C8.66801 11.1943 9.13001 9.77165 10.0063 8.54333C10.6553 7.62666 11 6.54866 11 5.42666C11 2.43465 8.53234 0 5.5 0Z" fill="#FFF598"/>
<path id="Vector_2" d="M8.6678 13.3872H2.33179V14.3369H8.6678V13.3872Z" fill="#FFF598"/>
<path id="Vector_3" d="M2.33179 15.6382C2.33179 16.2542 2.83412 16.7565 3.45379 16.7565H3.95247C4.25679 17.2698 4.85079 17.5998 5.49979 17.5998C6.1488 17.5998 6.7428 17.2698 7.04714 16.7565H7.5458C8.16547 16.7565 8.6678 16.2542 8.6678 15.6382V15.0698H2.33179V15.6382Z" fill="#FFF598"/>
</g>
</svg>
