<svg width="101" height="126" viewBox="0 0 101 126" fill="none" xmlns="http://www.w3.org/2000/svg">
<path d="M86.2473 125.451H27.1973C23.2867 125.446 19.5375 123.891 16.7723 121.125C14.0071 118.36 12.4516 114.611 12.447 110.7V91.4369C12.447 90.787 12.7052 90.1638 13.1647 89.7043C13.6242 89.2448 14.2474 88.9866 14.8972 88.9866C15.5471 88.9866 16.1703 89.2448 16.6298 89.7043C17.0893 90.1638 17.3474 90.787 17.3474 91.4369V110.7C17.3507 113.312 18.3895 115.815 20.236 117.662C22.0825 119.508 24.5859 120.547 27.1973 120.55H86.2473C88.8588 120.547 91.3626 119.508 93.2094 117.662C95.0563 115.815 96.0957 113.312 96.0996 110.7V88.6265C96.0996 87.9766 96.3577 87.3534 96.8172 86.8939C97.2767 86.4344 97.8999 86.1763 98.5498 86.1763C99.1996 86.1763 99.8228 86.4344 100.282 86.8939C100.742 87.3534 101 87.9766 101 88.6265V110.7C100.995 114.611 99.4387 118.36 96.6731 121.126C93.9075 123.891 90.1581 125.446 86.2473 125.451Z" fill="white"/>
<path d="M98.54 84.0691C97.8902 84.0691 97.2669 83.8109 96.8074 83.3514C96.3479 82.8919 96.0898 82.2687 96.0898 81.6189V25.4454C96.0876 24.7508 95.939 24.0644 95.6536 23.4311C95.3682 22.7978 94.9524 22.2318 94.4334 21.7701L76.8654 6.15494C75.965 5.34962 74.8 4.90318 73.592 4.90043H29.6475C26.3843 4.90562 23.2564 6.2047 20.9497 8.51279C18.643 10.8209 17.3458 13.9496 17.3426 17.2127V47.0734C17.3426 47.7232 17.0844 48.3465 16.6249 48.806C16.1654 49.2655 15.5422 49.5236 14.8923 49.5236C14.2425 49.5236 13.6193 49.2655 13.1598 48.806C12.7003 48.3465 12.4421 47.7232 12.4421 47.0734V17.2127C12.4467 12.6503 14.2606 8.27592 17.486 5.04911C20.7115 1.82229 25.0851 0.00650128 29.6475 1.54428e-05H73.592C75.9991 -0.000450164 78.3227 0.882771 80.1218 2.48208L97.6898 18.0997C98.7279 19.0223 99.5588 20.1543 100.128 21.4213C100.697 22.6883 100.991 24.0615 100.99 25.4503V81.6189C100.99 82.2687 100.732 82.8919 100.273 83.3514C99.813 83.8109 99.1898 84.0691 98.54 84.0691Z" fill="white"/>
<path d="M98.415 26.5995H83.7775C81.1714 26.5962 78.6729 25.5595 76.8301 23.7167C74.9872 21.8738 73.9505 19.3754 73.9473 16.7692V3.01622C73.9473 2.36638 74.2054 1.74316 74.6649 1.28366C75.1244 0.824156 75.7476 0.56601 76.3975 0.56601C77.0473 0.56601 77.6705 0.824156 78.13 1.28366C78.5895 1.74316 78.8477 2.36638 78.8477 3.01622V16.7692C78.849 18.0763 79.3688 19.3295 80.293 20.2537C81.2173 21.1779 82.4704 21.6978 83.7775 21.699H98.415C99.0649 21.699 99.6881 21.9572 100.148 22.4167C100.607 22.8762 100.865 23.4994 100.865 24.1493C100.865 24.7991 100.607 25.4223 100.148 25.8818C99.6881 26.3413 99.0649 26.5995 98.415 26.5995Z" fill="white"/>
<path d="M34.6582 81.5625C34.0084 81.5625 33.3852 81.3044 32.9257 80.8449C32.4662 80.3854 32.208 79.7622 32.208 79.1123V59.3955C32.208 58.7457 32.4662 58.1224 32.9257 57.6629C33.3852 57.2034 34.0084 56.9453 34.6582 56.9453C35.3081 56.9453 35.9313 57.2034 36.3908 57.6629C36.8503 58.1224 37.1084 58.7457 37.1084 59.3955V79.1123C37.1084 79.7622 36.8503 80.3854 36.3908 80.8449C35.9313 81.3044 35.3081 81.5625 34.6582 81.5625Z" fill="white"/>
<path d="M34.695 72.9991C34.0477 72.9991 33.4267 72.7429 32.9676 72.2866C32.5085 71.8303 32.2486 71.2108 32.2448 70.5636C32.2448 70.5243 32.2203 66.4987 32.2203 64.9599C32.2203 63.6907 32.208 59.4029 32.208 59.4029C32.208 58.753 32.4662 58.1298 32.9257 57.6703C33.3852 57.2108 34.0084 56.9527 34.6582 56.9527H40.1467C44.6257 56.9527 48.2716 60.5471 48.2716 64.9673C48.2716 69.3875 44.6257 72.9819 40.1467 72.9819C38.6496 72.9819 34.7562 73.0064 34.7097 73.0064L34.695 72.9991ZM37.1158 61.8457C37.1158 63.0414 37.1158 64.3474 37.1158 64.9599C37.1158 65.6754 37.1158 66.9397 37.128 68.0839H40.1418C41.8986 68.0741 43.3687 66.6457 43.3687 64.9599C43.3687 63.2742 41.8986 61.8457 40.1442 61.8457H37.1158Z" fill="white"/>
<path d="M60.0545 71.4922C59.6469 71.4925 59.2457 71.3912 58.8872 71.1974C58.5286 71.0036 58.2241 70.7234 58.0012 70.3822L51.6992 60.7358C51.3553 60.1919 51.2391 59.5346 51.3757 58.9057C51.5124 58.2769 51.8909 57.7271 52.4296 57.375C52.9683 57.023 53.6239 56.897 54.2547 57.0243C54.8855 57.1515 55.4409 57.5219 55.8009 58.0552L60.0447 64.5556L64.2419 58.1092C64.4174 57.8387 64.6445 57.6055 64.9101 57.4228C65.1758 57.2401 65.4748 57.1115 65.7902 57.0444C66.1055 56.9773 66.431 56.9729 66.748 57.0316C67.065 57.0903 67.3674 57.2108 67.6378 57.3863C67.9083 57.5619 68.1415 57.7889 68.3242 58.0546C68.5069 58.3203 68.6355 58.6193 68.7026 58.9346C68.7697 59.25 68.7741 59.5755 68.7154 59.8925C68.6567 60.2095 68.5362 60.5119 68.3607 60.7823L62.1151 70.3773C61.8927 70.7194 61.5884 71.0006 61.2299 71.1953C60.8713 71.3899 60.4698 71.492 60.0618 71.4922H60.0545Z" fill="white"/>
<path d="M60.03 81.5625C59.3802 81.5625 58.757 81.3044 58.2975 80.8449C57.838 80.3854 57.5798 79.7622 57.5798 79.1123L57.6068 69.0395C57.6068 68.3897 57.8649 67.7665 58.3244 67.307C58.7839 66.8475 59.4072 66.5893 60.057 66.5893C60.7068 66.5893 61.33 66.8475 61.7896 67.307C62.2491 67.7665 62.5072 68.3897 62.5072 69.0395L62.4802 79.1197C62.4783 79.7683 62.2193 80.3896 61.76 80.8475C61.3007 81.3054 60.6786 81.5625 60.03 81.5625Z" fill="white"/>
<path d="M12.3417 105.604H8.57573C6.3013 105.604 4.12003 104.7 2.51177 103.092C0.903511 101.484 0 99.3027 0 97.0282C0 94.7538 0.903511 92.5725 2.51177 90.9643C4.12003 89.356 6.3013 88.4525 8.57573 88.4525H19.7046C20.3544 88.4525 20.9776 88.7107 21.4371 89.1702C21.8966 89.6297 22.1548 90.2529 22.1548 90.9027C22.1548 91.5525 21.8966 92.1758 21.4371 92.6353C20.9776 93.0948 20.3544 93.3529 19.7046 93.3529H8.57573C7.60097 93.3529 6.66614 93.7401 5.97689 94.4294C5.28763 95.1187 4.90041 96.0535 4.90041 97.0282C4.90041 98.003 5.28763 98.9378 5.97689 99.6271C6.66614 100.316 7.60097 100.704 8.57573 100.704H12.349C12.9989 100.704 13.6221 100.962 14.0816 101.421C14.5411 101.881 14.7993 102.504 14.7993 103.154C14.7993 103.804 14.5411 104.427 14.0816 104.886C13.6221 105.346 12.9989 105.604 12.349 105.604H12.3417Z" fill="white"/>
<path d="M2.48195 98.7728C1.83211 98.7728 1.20889 98.5146 0.749387 98.0551C0.289884 97.5956 0.0317383 96.9724 0.0317383 96.3226L0.137097 53.1989C0.140992 50.9271 1.04622 48.7496 2.65406 47.1445C4.2619 45.5394 6.44094 44.6379 8.71282 44.6379L98.5448 44.6208C99.1946 44.6208 99.8178 44.8789 100.277 45.3384C100.737 45.7979 100.995 46.4211 100.995 47.071V90.9027C100.995 91.5526 100.737 92.1758 100.277 92.6353C99.8178 93.0948 99.1946 93.3529 98.5448 93.3529H11.1581C10.5083 93.3529 9.88508 93.0948 9.42557 92.6353C8.96607 92.1758 8.70792 91.5526 8.70792 90.9027C8.70792 90.2529 8.96607 89.6297 9.42557 89.1702C9.88508 88.7107 10.5083 88.4525 11.1581 88.4525H96.0897V49.5065L8.70547 49.5236C7.73072 49.5236 6.79589 49.9108 6.10664 50.6001C5.41738 51.2894 5.03016 52.2242 5.03016 53.1989L4.9248 96.3226C4.92481 96.9711 4.66767 97.5933 4.20975 98.0526C3.75184 98.5118 3.13051 98.7708 2.48195 98.7728Z" fill="white"/>
</svg>
